<svg xmlns="http://www.w3.org/2000/svg" width="58.16" height="58.159" viewBox="0 0 58.16 58.159">
  <g id="download-icon" transform="translate(-215 -322.228)">
    <g id="no-video" transform="translate(215 322.228)">
      <path id="Path_1737" data-name="Path 1737" d="M-517.915,243.626a29.08,29.08,0,0,0-29.08,29.08,29.08,29.08,0,0,0,29.08,29.08,29.08,29.08,0,0,0,29.08-29.08A29.08,29.08,0,0,0-517.915,243.626Zm0,52.583a23.5,23.5,0,0,1-23.5-23.5,23.5,23.5,0,0,1,23.5-23.5,23.5,23.5,0,0,1,23.5,23.5A23.5,23.5,0,0,1-517.915,296.209Z" transform="translate(546.995 -243.626)" fill="#a1cd3c"/>
      <g id="Group_577" data-name="Group 577" transform="translate(-280.243 -232.897)">
        <path id="Path_1789" data-name="Path 1789" d="M308.394,248a3.394,3.394,0,1,0,3.394,3.394A3.394,3.394,0,0,0,308.394,248Zm0,4.606a1.212,1.212,0,1,1,1.212-1.212A1.212,1.212,0,0,1,308.394,252.606Z" transform="translate(-9.091)" fill="#919183"/>
        <path id="Path_1790" data-name="Path 1790" d="M352.394,248a3.394,3.394,0,1,0,3.394,3.394A3.394,3.394,0,0,0,352.394,248Zm0,4.606a1.212,1.212,0,1,1,1.212-1.212A1.212,1.212,0,0,1,352.394,252.606Z" transform="translate(-42.424)" fill="#919183"/>
        <g id="Group_577-2" data-name="Group 577" transform="translate(293 255.031)">
          <path id="Path_1791" data-name="Path 1791" d="M322.762,295H308.754a.755.755,0,0,0-.754.754v7.219a.755.755,0,0,0,.754.754h14.007a.755.755,0,0,0,.754-.754v-7.219A.755.755,0,0,0,322.762,295Zm-2.155,3.637h-9.7a.97.97,0,0,1,0-1.939h9.7a.97.97,0,0,1,0,1.939Z" transform="translate(-304.363 -290.636)" fill="#919183"/>
          <path id="Path_1792" data-name="Path 1792" d="M323.3,277.242l-7.273,4.849v-2.236A2.855,2.855,0,0,0,313.176,277H295.855A2.855,2.855,0,0,0,293,279.855v11.987a2.855,2.855,0,0,0,2.855,2.855h17.321a2.855,2.855,0,0,0,2.855-2.855v-1.751s5.818,3.637,7.515,4.606,1.939-.727,1.939-.727v-16C325.486,276.515,323.3,277.242,323.3,277.242Zm-9.7,12.095a2.211,2.211,0,0,1-2.209,2.209H297.391a2.211,2.211,0,0,1-2.209-2.209v-7.219a2.211,2.211,0,0,1,2.209-2.209H311.4a2.211,2.211,0,0,1,2.209,2.209Z" transform="translate(-293 -277)" fill="#919183"/>
        </g>
      </g>
      <path id="Path_1739" data-name="Path 1739" d="M-480.957,307.358c-2.9-1.408-3.1-2.894-3.7-3.607l33.392-33.2,2.757,1.406,1.252,2.662Z" transform="translate(494.948 -259.884)" fill="#a1cd3c"/>
    </g>
  </g>
</svg>
